<?xml version="1.0" encoding="UTF-8" standalone="no"?>
<!-- Created with Inkscape (http://www.inkscape.org/) -->

<svg
   width="512"
   height="512"
   viewBox="0 0 512 512"
   version="1.1"
   id="svg1"
   inkscape:version="1.4.4 (dcaf3e7d9e, 2026-05-05)"
   sodipodi:docname="drawing.svg"
   xmlns:inkscape="http://www.inkscape.org/namespaces/inkscape"
   xmlns:sodipodi="http://sodipodi.sourceforge.net/DTD/sodipodi-0.dtd"
   xmlns="http://www.w3.org/2000/svg"
   xmlns:svg="http://www.w3.org/2000/svg">
  <sodipodi:namedview
     id="namedview1"
     pagecolor="#ffffff"
     bordercolor="#000000"
     borderopacity="0.25"
     inkscape:showpageshadow="2"
     inkscape:pageopacity="0.0"
     inkscape:pagecheckerboard="0"
     inkscape:deskcolor="#d1d1d1"
     inkscape:document-units="px"
     showgrid="true"
     inkscape:zoom="1.3230631"
     inkscape:cx="302.70666"
     inkscape:cy="282.67738"
     inkscape:window-width="2540"
     inkscape:window-height="1373"
     inkscape:window-x="0"
     inkscape:window-y="0"
     inkscape:window-maximized="1"
     inkscape:current-layer="layer1">
    <inkscape:grid
       id="grid1"
       units="px"
       originx="0"
       originy="0"
       spacingx="1"
       spacingy="1"
       empcolor="#0099e5"
       empopacity="0.30196078"
       color="#0099e5"
       opacity="0.14901961"
       empspacing="5"
       enabled="true"
       visible="true" />
  </sodipodi:namedview>
  <defs
     id="defs1" />
  <g
     inkscape:label="Layer 1"
     inkscape:groupmode="layer"
     id="layer1">
    <path
       style="fill:#000000"
       d="m 174.59485,58.954105 c -1.00776,-0.25194 -2.77135,-1.763584 -3.02329,-0.755822 -0.25194,1.007763 4.06207,0.755822 3.02329,0.755822 -3.30543,0 -6.52025,-0.755822 -9.82568,-0.755822 -2.34035,0 -6.10275,-0.631798 -8.31404,0 -0.87344,0.249553 -1.39404,1.262092 -2.26747,1.511644 -0.96899,0.276854 -2.06724,-0.318682 -3.02329,0 -1.39366,0.464556 -2.41512,1.721873 -3.77911,2.267466 -1.59568,0.638274 -6.90926,1.043383 -8.31404,1.511643 -1.60334,0.534447 -3.00041,1.559229 -4.53493,2.267466 -3.78652,1.747623 -7.38098,3.97197 -11.33733,5.290753 -8.61917,2.873059 -2.30958,-2.194613 -12.09315,3.023288 -1.73622,0.925985 -3.02328,2.519406 -4.53493,3.779109 -2.26746,0.755822 -4.60553,1.325952 -6.802394,2.267465 -2.370984,1.016136 -9.332606,4.543034 -11.337328,6.046575 -0.855115,0.641336 -1.378093,1.67455 -2.267466,2.267466 -0.662899,0.441933 -1.645342,0.258123 -2.267465,0.755822 -0.70933,0.567463 -0.869319,1.62514 -1.511644,2.267465 -1.617254,1.617254 -3.728666,2.582323 -5.290753,4.534932 -0.703852,0.879814 -0.714938,2.226581 -1.511644,3.023287 -0.642325,0.642325 -1.786022,0.741335 -2.267465,1.511646 -0.03622,0.058 -4.494373,11.22579 -4.534932,11.33733 -0.43902,1.2073 -0.304751,2.57625 -0.755821,3.7791 -0.318956,0.85055 -1.262092,1.39404 -1.511644,2.26747 -0.290497,1.01674 -0.507678,16.03009 0,17.3839 0.515819,1.37552 1.80291,2.38545 2.267465,3.77911 0.318683,0.95605 -0.124997,2.02331 0,3.02329 0.63821,5.10568 0.475121,1.10862 2.267466,5.29075 1.143493,2.66815 0.355886,6.68039 2.267466,9.06987 0.567463,0.70932 1.511643,1.00776 2.267465,1.51164 0.251941,1.2597 0.131941,2.65612 0.755822,3.77911 0.692134,1.24584 2.120803,1.92025 3.023288,3.02329 1.3724,1.67737 2.425223,3.59839 3.779109,5.29075 3.073247,3.84156 7.487572,6.18254 11.337328,9.06986 1.574175,1.18063 2.859107,2.74783 4.534931,3.77911 1.634096,1.0056 3.606316,1.34868 5.290756,2.26747 2.21177,1.20642 3.79315,3.40821 6.04657,4.53493 2.94523,1.47261 2.69049,0.0258 5.29075,1.51164 1.09373,0.62499 1.87216,1.75585 3.02329,2.26747 2.62499,1.16666 5.63295,1.23627 8.31404,2.26746 1.79083,0.68878 3.42304,1.828 5.29076,2.26747 2.46466,0.57992 5.06069,0.33957 7.55821,0.75582 12.69406,2.11568 -1.48202,1.51422 15.87226,3.02329 2.50994,0.21825 5.05132,-0.25069 7.55822,0 18.57511,1.85751 -1.38612,1.51164 12.84897,1.51164 9.82569,0 19.65137,0 29.47706,0 4.39246,0 10.07602,0.8509 14.36061,-0.75582 1.05498,-0.39562 1.93022,-1.23838 3.02329,-1.51164 1.00392,-0.25098 6.8024,-0.25875 6.8024,-1.51165"
       id="path1" />
    <path
       style="fill:#0000ff"
       d="m 298.54964,440.64415 c -2.77214,-0.40731 -5.31553,4.54318 -7.55822,5.29075 -0.95605,0.31868 -2.02924,-0.16568 -3.02329,0 -0.55569,0.0926 -1.00776,0.50388 -1.51164,0.75582 -1.00777,0.25194 -1.99087,0.64111 -3.02329,0.75582 -4.38953,0.48773 -9.19886,0 -13.6048,0 -3.62263,0 -7.74766,0.51281 -11.33732,0 -8.5443,-1.22061 -25.58809,-10.08935 -32.50034,-15.11643 -0.86446,-0.6287 -1.39767,-1.64619 -2.26747,-2.26747 -0.91684,-0.65489 -2.06784,-0.91449 -3.02329,-1.51164 -2.99867,-1.87418 -4.74709,-4.062 -6.80239,-6.8024 -0.42756,-0.57008 -1.19296,-0.87428 -1.51165,-1.51164 -0.76229,-1.5246 -2.43481,-3.52534 -3.02328,-5.29076 -0.31869,-0.95605 0.19763,-2.03509 0,-3.02329 -0.11049,-0.55241 -0.57768,-0.97719 -0.75583,-1.51164 -0.70277,-2.10831 -1.26225,-11.82848 -0.75582,-14.36061 0.27951,-1.39752 2.1109,-1.92843 3.02329,-3.02329 0.58153,-0.69784 1.00776,-1.51165 1.51164,-2.26747 1.00777,-0.75582 2.13255,-1.37672 3.02329,-2.26746 0.64233,-0.64233 0.8138,-1.68593 1.51164,-2.26747 1.56042,-1.30035 3.73034,-1.72294 5.29076,-3.02329 1.93225,-1.61021 4.11235,-3.99692 6.80239,-4.53493 0.74115,-0.14823 1.53421,0.18332 2.26747,0 0.34566,-0.0864 0.39952,-0.75582 0.75582,-0.75582 0.25194,0 0.22534,0.64315 0,0.75582 -0.45068,0.22535 -1.01283,-0.0713 -1.51164,0 -5.98249,0.85464 -1.82403,0.75582 -5.29076,0.75582 -1.2597,0 -2.55701,-0.30552 -3.7791,0 -0.88127,0.22032 -1.42406,1.17428 -2.26747,1.51165 -0.53561,0.21424 -7.51831,0.39786 -8.31404,0 -0.31868,-0.15934 -0.43714,-0.59648 -0.75582,-0.75582 -0.45635,-0.22818 -1.91808,0.34939 -2.26747,0 -0.17815,-0.17815 0.17815,-0.57768 0,-0.75583 -0.40465,-0.40465 -3.84274,-1.44801 -4.53493,-0.75582 -1.40493,1.40494 -5.89416,8.15954 -6.8024,10.58151 -0.26538,0.7077 0.375,1.61123 0,2.26746 -0.70709,1.23742 -2.38592,1.74856 -3.02328,3.02329 -0.68536,1.37071 -0.45528,3.0322 -0.75583,4.53493 -0.68114,3.40575 -1.30425,6.96064 -3.02328,9.82569 -1.41135,2.35225 0.46457,5.52304 -3.02329,3.77911 -2.99687,-1.49844 -6.24404,-3.17139 -9.06986,-5.29076 -3.14835,-2.36126 -5.61496,-5.67372 -9.06986,-7.55821 -1.12779,-0.61516 -2.51941,-0.50389 -3.77911,-0.75583 -1.76359,-1.00776 -3.5771,-1.93278 -5.29076,-3.02328 -3.32017,-2.11284 -5.73261,-5.47244 -9.06986,-7.55822 -1.82538,-1.14087 -4.14724,-1.25449 -6.04657,-2.26747 -5.02182,-2.6783 -9.52507,-6.80346 -14.36062,-9.82568 -2.68513,-1.67821 -6.02697,-3.00368 -8.31404,-5.29076 -0.64233,-0.64232 -0.8138,-1.68593 -1.51164,-2.26746 -0.86557,-0.72131 -2.04503,-0.95264 -3.02329,-1.51164 -2.17808,-1.24462 -3.29707,-3.20581 -5.29075,-4.53494 -0.20963,-0.13975 -0.57768,0.17815 -0.75583,0 -0.39835,-0.39835 -0.35746,-1.11329 -0.75582,-1.51164 -0.17815,-0.17815 -0.57767,0.17815 -0.75582,0 -0.3563,-0.3563 0.22534,-1.06096 0,-1.51164 -0.31868,-0.63737 -1.2863,-0.83562 -1.51164,-1.51165 -0.23902,-0.71703 0.53444,-1.73302 0,-2.26746 -0.17815,-0.17815 -0.57768,0.17815 -0.75583,0 -0.7948,-0.79481 0.16289,-7.98828 -0.75582,-9.82569 -0.71259,-1.42518 -0.95717,-2.87152 -1.51164,-4.53493 -0.75582,-2.26746 1.51164,1.51165 0,-2.26746 -0.33737,-0.84342 -1.1054,-1.45499 -1.51164,-2.26747 -0.46456,-0.92911 -0.0213,-2.28876 -0.75583,-3.02329 -0.17815,-0.17815 -0.64315,0.22535 -0.75582,0 0,-3.04752 0.3563,-0.32125 -0.75582,-2.26746 -4.562224,-7.98389 -0.62843,-1.12947 -3.023288,-8.31404 -0.354027,-1.06208 -3.982311,-4.94134 -4.534931,-6.04658 -1.125215,-2.25043 -0.470573,-4.51204 -1.511644,-6.80239 -0.840521,-1.84915 -2.198335,-3.43461 -3.023287,-5.29076 -0.204646,-0.46045 0.225342,-1.06096 0,-1.51164 -0.318683,-0.63737 -1.192961,-0.87428 -1.511644,-1.51165 -1.569329,-3.13865 -2.546973,-6.53998 -3.779109,-9.82568 -0.904584,-2.41222 -1.095024,-5.0585 -1.511644,-7.55822 1.470233,-2.09989 -1.238376,-1.93021 -1.511644,-3.02329 -0.244418,-0.97767 0.712596,-2.31069 0,-3.02328 -0.398353,-0.39836 -1.19915,-0.28708 -1.511643,-0.75582 -0.839002,-1.25851 0.376237,-4.54163 0,-6.04658 -1.263882,-5.05553 -0.980831,-10.56413 -1.511644,-15.87226 -0.432759,-4.32758 -1.414523,-8.58426 -2.267466,-12.84897 -0.516784,-2.58392 -1.828187,-4.92255 -2.267465,-7.55822 -0.0099,-0.0595 -0.556785,-7.55822 -0.755822,-7.55822 -0.831208,0 1.415281,1.68328 3.023287,3.02329 3.175449,2.64621 7.407902,5.49259 11.337328,6.8024 1.453853,0.48461 3.104584,0.20568 4.534931,0.75582 1.895821,0.72916 3.388872,2.31008 5.290753,3.02329 5.348862,2.00582 21.589252,4.27946 27.209592,4.53493 3.02016,0.13728 6.05701,-0.25107 9.06986,0 3.0544,0.25453 6.0139,1.27657 9.06986,1.51164 8.28955,0.63766 16.62808,0 24.94212,0 20.26717,0 40.33357,-0.21414 60.46575,-3.02329 10.91361,-1.52283 21.63817,-4.19206 32.50034,-6.04657 12.47883,-2.13053 24.29494,-4.14552 36.27945,-8.31404 0.30502,-0.1061 9.14114,-2.96623 11.33733,-4.53493 0.86979,-0.62128 1.4328,-1.59974 2.26746,-2.26747 0.43991,-0.35192 1.11329,-0.35747 1.51165,-0.75582 0.50398,-0.50398 0,-6.50372 0,-6.8024 0,-8.69902 -3.00651,-12.81542 -6.8024,-20.40719 -2.91695,-5.83389 -4.00504,-8.27503 -7.55822,-13.60479 -1.7129,-2.56935 -0.10134,-0.40535 -0.75582,-3.02329 -0.28282,-1.13128 -1.86107,-2.96631 -2.26747,-3.77911 -0.11267,-0.22534 0.17815,-0.57767 0,-0.75582 -0.17814,-0.17815 -0.64315,0.22534 -0.75582,0 -0.22534,-0.45068 0.22535,-1.06096 0,-1.51164 -0.3341,-0.66822 -3.43896,-0.7035 -3.77911,-0.75583 -5.07884,-0.78136 -10.03331,-2.27023 -15.11643,-3.02328 -4.26597,-0.632 -8.58301,-0.87965 -12.84898,-1.51165 -15.29672,-2.26618 -30.52576,-4.97752 -46.10513,-3.77911 -1.00851,0.0776 -16.42669,2.50193 -18.13972,3.02329 -3.13333,0.95362 -5.95046,2.7809 -9.06987,3.77911 -3.20139,1.02445 -6.69549,1.04261 -9.82568,2.26747 -2.73609,1.07064 -4.95555,3.17163 -7.55822,4.53493 -0.83291,0.43629 -10.59873,4.66181 -12.84897,6.04657 -1.48744,0.91535 -8.53269,6.03014 -9.82568,7.55822 -1.53528,1.81442 -2.29434,4.1906 -3.77911,6.04658 -1.55805,1.94755 -3.77009,3.31388 -5.29076,5.29075 -3.10029,4.03038 -1.61966,4.75097 -3.77911,9.06986 -0.56335,1.12671 -1.70411,1.89658 -2.26746,3.02329 -1.78977,3.57953 -4.44317,12.36844 -3.02329,16.62808 0.17815,0.53445 1.2218,0.27275 1.51164,0.75582 1.05456,1.75759 0.90739,5.1023 2.26747,6.8024 0.56746,0.70933 1.72243,0.78493 2.26747,1.51164 3.1173,4.1564 -5.40691,-1.56972 2.26746,2.26747 1.12671,0.56335 1.2838,2.23635 2.26747,3.02329 0.62212,0.49769 1.53942,0.43224 2.26746,0.75582 1.54441,0.6864 2.93159,1.73302 4.53493,2.26746 1.45386,0.48462 3.0482,0.38414 4.53493,0.75582 5.87622,1.46906 11.4372,4.13978 17.38391,5.29076 4.4797,0.86704 9.09243,0.83479 13.60479,1.51164 18.05949,2.70893 14.6025,3.68265 32.50034,4.53493 13.26971,0.63189 26.8143,-1.05954 40.05856,0 2.56112,0.20489 5.00652,1.21145 7.55822,1.51165 10.9215,1.28488 22.29697,-0.91327 33.25616,0 7.84771,0.65397 15.60951,2.10317 23.43048,3.02328 10.56754,1.24324 20.4917,2.20227 30.98869,4.53493 5.37144,1.19366 10.52651,3.23109 15.87226,4.53494 8.49657,2.07233 17.33122,2.74435 25.69795,5.29075 7.14718,2.17523 5.22669,2.22476 9.82568,5.29075 0.50388,0.25194 1.00776,0.50388 1.51164,0.75582 0.50389,0 1.06096,-0.22534 1.51165,0 2.10985,1.05493 -1.33742,1.33742 -1.51165,1.51165 -0.35629,0.3563 0.0988,1.01755 0,1.51164 -0.15624,0.78124 -0.34592,1.5843 -0.75582,2.26747 -1.51538,2.52563 -4.08376,4.74191 -5.29075,7.55822 -2.37413,5.53963 1.16764,0.55041 -2.26747,6.04657 -2.86842,4.58948 -7.11858,8.11154 -9.82568,12.84897 -1.78969,3.13196 -2.83741,6.64283 -4.53493,9.82569 -1.22065,2.28872 -2.81577,4.39403 -3.77911,6.80239 -1.06684,2.66711 -1.35908,5.58889 -2.26747,8.31404 -0.85808,2.57424 -2.29704,4.94373 -3.02328,7.55822 -0.54364,1.95711 -0.3815,4.05016 -0.75583,6.04658 -1.44433,7.70309 -4.93186,15.19251 -6.80239,22.67465 -0.38237,1.52949 -1.85812,1.79523 -2.26747,3.02329 -0.15934,0.47802 0.15934,1.03362 0,1.51164 -0.14399,0.43198 -1.9038,1.32982 -2.26746,1.51165 -1.20932,0.60466 -3.32562,-0.60466 -4.53493,0 -0.63737,0.31868 -0.82647,1.31588 -1.51165,1.51164 -2.42247,0.69214 -5.03881,0 -7.55822,0 -6.04657,0 -12.09315,0 -18.13972,0 -7.80618,0 -16.41425,0.70655 -24.1863,0 -2.55875,-0.23261 -4.99947,-1.27903 -7.55822,-1.51164 -3.01087,-0.27372 -6.05702,0.25107 -9.06986,0 -3.05441,-0.25454 -6.0164,-1.24613 -9.06986,-1.51165 -5.77285,-0.50198 -11.60773,0.4621 -17.38391,0 -3.30321,-0.26425 -6.52247,-1.24738 -9.82568,-1.51164 -6.17149,-0.49372 -12.6813,0 -18.89555,0 -1.38401,0 -3.99029,-2.05629 -4.53493,-1.51164 -0.39449,0.39449 -0.63011,6.8668 -0.75582,7.55822 -0.28504,1.56771 -1.19915,2.97246 -1.51165,4.53493 -0.69888,3.49444 1.34457,6.59554 2.26747,9.82568 1.93032,6.75611 5.86615,15.10242 10.58151,20.40719 2.25187,2.53336 5.04477,4.52833 7.55822,6.8024 7.37335,6.67112 9.37014,9.21983 18.13972,14.36061 7.09636,4.15994 14.79379,7.22673 21.91883,11.33733 12.86519,7.42222 25.67958,14.48408 39.30274,20.40719 3.30809,1.4383 6.56569,2.99072 9.82569,4.53493 0.98506,0.46661 12.00297,6.89257 13.60479,5.29076 0.17815,-0.17815 -0.17815,-0.57768 0,-0.75583 0.17815,-0.17815 0.51681,0.0797 0.75582,0 1.90157,-0.63385 2.26747,-0.49962 2.26747,-2.26746"
       id="path9" />
    <path
       style="fill:#0000ff"
       d="m 253.20032,451.98147 136.80376,8.31404"
       id="path10" />
    <path
       style="fill:#0000ff"
       d="m 346.16641,233.54896 39.30274,61.97739"
       id="path11" />
    <path
       style="fill:#0000ff"
       d="m 183.66471,324.24758 c -19.03447,-10.38244 -0.43561,0.0808 -12.84897,-7.55822 -8.44426,-5.19647 -7.86266,-4.69243 -11.33733,-15.11644 -1.80611,-5.41833 -3.68009,-11.07161 -4.53493,-16.62808 -1.2641,-8.21666 -3.20448,-16.2657 0.75582,-24.1863"
       id="path12" />
    <path
       style="fill:#ff0000"
       d="m 276.6308,174.59485 c 1.00776,0 2.10238,-0.40929 3.02329,0 4.06583,1.80704 10.68475,9.26557 14.36061,12.09315 5.57266,4.28666 11.96041,7.65574 17.38391,12.09315 1.37879,1.12811 2.36706,2.69292 3.77911,3.77911 3.9374,3.02877 8.61862,5.02001 12.84897,7.55822 1.38331,0.82999 2.28128,2.42416 3.77911,3.02329 0.70176,0.2807 1.55043,-0.23902 2.26746,0 2.11781,0.70593 2.99832,2.21752 3.77911,3.7791 0.25194,0.50389 1.25971,0.25195 1.51165,0.75583 0.57256,1.14513 -0.31364,3.28039 0,4.53493 1.68678,6.74713 0.97312,14.53696 -1.51165,21.16301 -0.39561,1.05497 -1.21518,1.93628 -1.51164,3.02329 -0.46874,1.71871 -0.14701,3.61652 -0.75582,5.29075 -0.4305,1.18386 -1.66426,1.9174 -2.26747,3.02329 -0.91878,1.68444 -1.34868,3.60631 -2.26746,5.29075 -2.42311,4.44237 -9.36483,13.04561 -13.6048,15.87226 -1.72863,1.15242 -4.18835,0.58253 -6.04657,1.51164 -1.12672,0.56336 -1.89658,1.70411 -3.02329,2.26747 -0.96878,0.48439 -6.08676,1.2731 -6.8024,1.51164 -6.85856,2.28619 1.68064,1.47543 -9.06986,3.77911 -1.47809,0.31674 -3.02851,-0.12553 -4.53493,0 -4.54537,0.37878 -9.04691,1.13182 -13.60479,1.51165 -1.25536,0.10461 -2.53973,-0.22535 -3.77911,0 -1.56771,0.28503 -2.96005,1.26935 -4.53493,1.51164 -3.02681,0.46566 -15.24034,0.64431 -18.13973,0 -1.32443,-0.29432 -2.45711,-1.20657 -3.77911,-1.51164 -3.2289,-0.74513 -6.53219,-1.1457 -9.82568,-1.51165 -1.0016,-0.11129 -2.06724,0.31868 -3.02329,0 -4.42885,-1.47628 -2.97297,-2.62022 -6.8024,-4.53493 -0.92911,-0.46455 -2.12137,-0.24044 -3.02328,-0.75582 -0.92806,-0.53032 -1.44632,-1.58318 -2.26747,-2.26747 -0.69784,-0.58153 -1.62514,-0.86932 -2.26747,-1.51164 -0.39835,-0.39835 -0.40389,-1.07174 -0.75582,-1.51164 -0.66773,-0.83467 -1.59973,-1.4328 -2.26746,-2.26747 -2.32914,-2.91142 -2.84429,-7.90966 -3.77911,-11.33733 -0.83851,-3.07453 -2.53871,-5.92009 -3.02329,-9.06986 -0.51463,-3.34507 -0.48754,-20.77354 0,-24.1863 0.24121,-1.6885 3.26933,-7.12455 3.77911,-8.31404 1.25535,-2.92915 1.72899,-6.1577 3.02329,-9.06986 0.59664,-1.34244 1.61048,-2.46515 2.26746,-3.77911 1.88606,-3.77211 2.5166,-8.46015 4.53493,-12.09315 6.2732,-6.2732 0.54711,0.52178 2.26747,-3.77911 0.46845,-1.17113 5.75027,-6.8024 3.77911,-6.8024 -0.63871,0 -11.0413,2.11946 -11.33733,2.26747 -0.63736,0.31868 -0.82647,1.31588 -1.51164,1.51164 -2.63499,0.75285 -7.794,0.19832 -10.58151,0.75582 -2.75215,0.55043 -5.48068,2.26747 -8.31404,2.26747 -6.8393,0 2.42891,-0.23901 -4.53493,0.75582 -1.51611,0.21659 -4.41487,0 -6.04658,0 -1.51164,0 -3.02328,0 -4.53493,0 -0.50388,0 -1.51164,-0.50388 -1.51164,0 0,0.79671 1.55487,-0.39952 2.26747,-0.75582 9.13035,-4.56518 -2.37451,2.72565 8.31404,-5.29075 4.89296,-3.66972 12.21174,-8.46391 17.3839,-11.33733 3.44723,-1.91513 7.24439,-3.18961 10.5815,-5.29075 3.49675,-2.20166 6.55046,-5.03882 9.82569,-7.55822 4.03105,-1.76359 8.32022,-3.027 12.09315,-5.29076 2.60143,-1.56086 4.49085,-4.08176 6.8024,-6.04657 2.72831,-2.31907 5.51794,-4.56552 8.31404,-6.8024 3.93465,-3.14772 8.15849,-5.92214 12.09315,-9.06986 20.87503,-16.70003 -3.16741,2.17504 9.06986,-8.31404 2.96553,-2.54189 6.79453,-3.77321 9.82568,-6.04658 0.72671,-0.54503 0.72295,-1.81678 1.51165,-2.26746 10.41891,-5.95367 -0.89937,2.45747 6.04657,-1.51165 1.09373,-0.62498 1.89658,-1.7041 3.02329,-2.26746 1.64052,-0.82026 3.6049,-0.78914 5.29075,-1.51164 1.03561,-0.44384 1.93993,-1.20212 3.02329,-1.51165 2.40894,-0.68827 5.13575,-0.1502 7.55822,-0.75582 0.36684,-0.0917 1.52484,-1.49844 2.26746,-0.75582 0.17815,0.17815 -0.17815,0.57767 0,0.75582 0.17815,0.17815 0.6262,-0.21604 0.75582,0 1.72292,2.87153 3.41187,8.52966 4.53494,11.33733 1.44147,3.60369 0.50639,-0.78715 3.77911,5.29075 1.02053,1.89529 1.19948,4.17761 2.26746,6.04658 0.97626,1.70845 2.57937,2.97527 3.77911,4.53493 1.32141,1.71783 2.51941,3.52717 3.77911,5.29075 1.2597,2.01553 2.35303,4.14513 3.77911,6.04658 0.85511,1.14015 2.08479,1.95072 3.02329,3.02328 2.02511,2.31442 3.11616,5.38364 5.29075,7.55822 1.03878,1.03878 2.61951,1.36555 3.77911,2.26747 2.98144,-0.54308 2.55993,3.31575 3.77911,4.53493 3.79748,3.79748 9.92347,4.89593 14.36061,7.55822 1.85843,1.11505 3.35229,2.80987 5.29076,3.77911 0.81003,0.40501 12.99992,3.53171 14.36061,3.77911 0.79879,0.14523 8.77996,0.23295 9.82569,0.75582 1.62835,0.81417 4.6679,2.26746 6.04657,2.26746 0.25194,0 -0.50388,0 -0.75582,0 -1.01058,0 -3.57065,0.37011 -4.53493,0.75582 -4.46204,1.78482 -7.95198,5.25757 -12.09315,7.55822 -1.18601,0.6589 -2.63448,0.78325 -3.77911,1.51165 -1.66009,1.05642 -2.92291,2.65069 -4.53493,3.77911 -0.92304,0.64612 -2.08581,0.88665 -3.02329,1.51164 -1.9056,1.2704 -6.69923,5.62799 -8.31404,6.8024 -4.51961,3.28698 -9.11926,6.46153 -13.60479,9.82568 -1.45342,1.09006 -3.18454,1.80793 -4.53494,3.02329 -4.9549,4.45941 -1.44433,2.47556 -4.53493,6.80239 -5.09227,7.12918 -0.24386,-1.95038 -3.02328,4.53494 -4.90988,11.45637 -1.50128,17.40981 3.02328,28.72123 3.60871,9.02177 8.40933,17.50734 12.09315,26.45376 0.69836,1.69601 0.78914,3.6049 1.51165,5.29076 1.50673,3.51572 4.2703,8.5406 6.04657,12.09314 0.68398,1.36796 0.2363,5.99965 0.75582,7.55822 0.22003,0.66007 1.69281,3.59795 0.75583,4.53493 -0.17815,0.17815 -0.55909,-0.15738 -0.75583,0 -1.39111,1.11289 -2.29682,2.79092 -3.77911,3.77911 -2.31063,1.54043 -0.78331,0.15667 -3.7791,0.75583 -0.55242,0.11048 -0.9772,0.57767 -1.51165,0.75582 -1.08829,0.36276 -3.50279,0 -4.53493,0 -8.67915,0 -17.57892,-4.41965 -24.1863,-9.82569 -1.10304,-0.90248 -1.9104,-2.13297 -3.02329,-3.02328 -1.41866,-1.13493 -3.11627,-1.88836 -4.53493,-3.02329 -3.53942,-2.83154 -12.19107,-11.35525 -15.11644,-15.11644 -0.69173,-0.88937 -0.85675,-2.10644 -1.51164,-3.02329 -3.82926,-5.36096 -0.83529,1.18362 -4.53493,-5.29075 -1.02216,-1.78878 -0.95471,-2.86412 -1.51164,-4.53493 -0.53445,-1.60334 -1.85757,-2.89532 -2.26747,-4.53493 -0.24442,-0.97767 0.31868,-2.06724 0,-3.02329 -0.11267,-0.33801 -0.64315,-0.41781 -0.75582,-0.75582 -0.41868,-1.25604 0,-4.03922 0,-5.29075"
       id="path13" />
    <path
       style="fill:#ff0000"
       d="M 72.558899,465.58627 152.67602,401.34141"
       id="path14" />
    <path
       style="fill:#ff00ff"
       d="m 215.40923,450.46983 c -7.62274,-3.81137 2.47967,0.86938 -7.55822,-2.26747 -6.47491,-2.02341 -12.5816,-5.07774 -18.89554,-7.55821 -15.2029,-5.97257 -30.55554,-11.98442 -44.59349,-20.40719 -14.81399,-8.8884 -11.18517,-7.70872 -25.69795,-17.38391 -3.27523,-2.01552 -6.55045,-4.03105 -9.82568,-6.04657 -0.25194,-0.75582 -0.19247,-1.70411 -0.75582,-2.26747 -0.3563,-0.3563 -1.00777,0 -1.51165,0 -0.50388,-0.50388 -1.11636,-0.91873 -1.51164,-1.51164 -1.03752,-1.55629 -1.19232,-3.37484 -1.51164,-5.29075 3.37733,-5.29328 -1.29133,-1.38621 -1.51165,-2.26747 -0.24442,-0.97767 0.31868,-2.06724 0,-3.02329 -0.22534,-0.67603 -1.11637,-0.91873 -1.51164,-1.51164 -0.791591,-1.18738 -0.25287,-7.80555 0,-9.06986 0.36939,-1.84696 1.25585,-5.11637 2.26746,-6.8024 0.36663,-0.61105 1.19296,-0.87428 1.51165,-1.51164 0.22534,-0.45069 -0.12221,-1.02281 0,-1.51165 0.29625,-1.18502 4.39212,-7.1089 5.29075,-7.55822 1.24063,-0.62031 3.33937,-0.15804 4.53493,-0.75582 0.81249,-0.40624 0.69916,-1.86122 1.51164,-2.26746 1.71018,-0.85509 20.82275,0.42699 21.91884,0.75582 2.69799,0.80939 4.88598,2.88836 7.55822,3.77911 4.3346,1.44486 6.84411,0.57563 10.5815,3.77911 0.6897,0.59117 0.93011,1.56962 1.51165,2.26746 5.65935,6.79122 9.82568,12.11178 9.82568,21.16301 0,2.08091 0.85609,7.35768 0,9.06987 -1.63399,3.26798 -2.40434,0 -6.04657,0 -2.95258,0 -0.0798,0.22534 -3.02329,-0.75583 -1.58844,-0.52947 -3.66118,0.4074 -5.29075,0 -0.77292,-0.19322 -1.48623,-0.59957 -2.26747,-0.75582 -1.33121,-0.26624 -16.46465,-0.45962 -17.3839,0 -1.42799,0.714 -3.46039,1.27879 -5.29076,0.75582 -1.08336,-0.30953 -1.9234,-1.26722 -3.02328,-1.51164 -3.20668,-0.71259 -6.59077,-0.18495 -9.82569,-0.75582 -7.78872,-1.37448 -15.630986,-4.27343 -23.430475,-5.29075 -20.051098,0 -0.659117,1.02925 -12.093149,-1.51165 -1.475647,-0.32792 -3.182876,0.67603 -4.534932,0 -0.637365,-0.31868 -0.874278,-1.19296 -1.511643,-1.51164 -0.450685,-0.22534 -1.060959,0.22534 -1.511644,0 -0.225343,-0.11267 0.139751,-0.5462 0,-0.75582 -1.640561,-2.46084 -1.405969,-0.4388 -2.267466,-3.02329 -0.631451,-1.89436 -0.10153,-8.5171 -0.755822,-9.82568 -0.25194,-0.50389 -1.333494,-0.22138 -1.511643,-0.75583 -0.654103,-1.96231 0,-11.65023 0,-13.60479 0,-6.00279 -0.935665,-14.7932 0,-20.40719 0.223047,-1.33828 1.288597,-2.44083 1.511643,-3.77911 0.732483,-4.39489 -0.492585,-9.17152 0,-13.60479 0.08798,-0.79184 0.667841,-1.47564 0.755822,-2.26747 0.307306,-2.76575 0.448516,-5.54828 0.755822,-8.31404 0.166933,-1.5024 -0.366627,-3.06842 0,-4.53493 0.386459,-1.54584 1.226606,-2.96722 1.511644,-4.53493 0.548256,-3.01541 0.48035,-13.74598 0,-16.62808 -0.261955,-1.57174 -1.269354,-2.96005 -1.511644,-4.53493 -0.633958,-4.12073 -0.0062,-8.72632 -0.755822,-12.84898 -0.494068,-2.71737 -2.151613,-5.69901 -3.023287,-8.31404 -1.484838,-4.45451 -3.29856,-9.07143 -4.534931,-13.60479 -0.338014,-1.23938 -0.234076,-2.60518 -0.755822,-3.77911 -0.511614,-1.15113 -1.799624,-1.85368 -2.267466,-3.02329 -0.569154,-1.42288 -0.315462,-3.06706 -0.755822,-4.53493 -0.323758,-1.07919 -1.155345,-1.95439 -1.511643,-3.02329 -0.538069,-1.6142 -0.785056,-5.10702 -1.511644,-6.80239 -0.35783,-0.83494 -1.224387,-1.4057 -1.511644,-2.26747 -0.07873,-0.23619 0.05249,-3.20174 0,-3.77911 -0.511765,-5.62942 -2.599799,-13.86211 0.755822,-18.89554 1.233745,-1.85062 7.915891,-5.40998 9.825684,-6.04658 2.017763,-0.67259 7.716955,-0.28721 9.825685,-0.75582 11.176296,-2.48362 -6.067315,-0.8375 6.802396,-2.26747 4.817369,-0.53526 14.807452,1.16803 18.895547,0 0.873434,-0.24955 1.454984,-1.1054 2.267464,-1.51164 1.20932,-0.60466 3.32562,0.60466 4.53493,0 1.30999,-0.65499 3.22867,-0.85851 4.53493,-1.51164 3.52731,-1.76366 5.5221,-6.01568 7.55822,-9.06987 3.47408,-5.21111 3.27884,-7.48386 5.29076,-12.84897 0.39561,-1.05497 1.26722,-1.9234 1.51164,-3.02328 0.27327,-1.22971 -0.15625,-2.52914 0,-3.77911 0.0988,-0.79056 0.59957,-1.48623 0.75582,-2.26747 1.21459,-6.07293 -0.83332,-12.40316 -2.26746,-18.13972 -0.65292,-2.61166 -2.77933,-5.05876 -3.77911,-7.55822 -1.67325,-4.18313 -2.94031,-8.17574 -5.29076,-12.09315 -1.87042,-3.11738 -4.57289,-5.52717 -6.80239,-8.31404 -1.67352,-2.0919 -2.2787,-4.24159 -4.53493,-6.046578 -0.62213,-0.497698 -1.70411,-0.192465 -2.26747,-0.755822 -0.17815,-0.178149 0,-0.503881 0,-0.755822 -0.50388,-0.503881 -0.87428,-1.192961 -1.511644,-1.511643 -0.767571,-0.383786 -10.622136,-0.755822 -12.09315,-0.755822 -5.659763,0 -9.051264,0.747851 -14.360615,3.023287 -2.45599,1.052567 -4.410017,3.33874 -6.802397,4.53493 -3.430199,1.7151 -5.143792,2.18649 -7.558219,5.29075 -2.480488,3.1892 -5.86246,7.60666 -7.558218,11.33733 -0.659359,1.45059 -0.852285,3.08434 -1.511644,4.53493 -0.607899,1.33738 -1.670826,2.43667 -2.267466,3.77911 -1.230885,2.76949 -1.414263,11.06841 -0.755822,14.36062 0.486591,2.43295 1.284156,2.83248 2.267466,5.29075 0.300692,0.75173 1.392908,5.05328 1.511644,5.29075 0.637365,1.27473 2.015525,2.01553 3.023287,3.02329 1.154276,1.15428 1.869011,2.62483 3.023288,3.77911 2.879912,2.87991 6.534206,3.85226 9.825684,6.04658 7.868765,5.24584 -4.91969,-0.94821 6.046575,4.53493 2.365979,1.18299 5.301527,1.61285 7.558218,3.02328 0.90642,0.56652 1.339407,1.73715 2.267466,2.26747 3.1594,1.80537 8.219148,1.98389 11.337328,3.02329 0.338014,0.11267 0.417808,0.64315 0.755822,0.75582 0.717035,0.23901 1.733019,-0.53445 2.267465,0 0.178149,0.17815 -0.178149,0.57767 0,0.75582 0.356298,0.3563 1.155346,-0.3563 1.511644,0 0.484506,0.48451 0,4.90148 0,5.29075 0,19.70982 -16.770512,34.70014 -27.209587,49.88425 -2.713401,4.34144 -4.011303,6.54992 -6.802397,10.5815 -3.40788,4.9225 -7.367117,9.30944 -10.581506,14.36062 -0.738453,1.16043 -5.291936,9.07104 -6.046575,9.82568 -0.563356,0.56336 -1.704109,0.19247 -2.267465,0.75582 -0.563357,0.56336 -0.192466,1.70411 -0.755822,2.26747 -0.563356,0.56336 -1.645343,0.25812 -2.267466,0.75582 -1.049734,0.83979 -1.626576,3.08076 -3.023287,3.77911 -1.97487,0.98744 -8.280331,3.02329 -10.581506,3.02329 -0.935993,0 -4.273279,0.55244 -4.534931,-0.75582 -0.197639,-0.9882 0.197638,-2.0351 0,-3.02329 -0.06988,-0.34938 -0.503882,-0.50388 -0.755822,-0.75582 -0.251941,-1.00776 -0.626978,-1.99253 -0.755822,-3.02329 -0.124998,-0.99998 0.276854,-2.0543 0,-3.02329 -0.249553,-0.87343 -1.174278,-1.42405 -1.511644,-2.26746 -0.617644,-1.54411 -1.322633,-6.61361 -0.755822,-8.31404 0.112672,-0.33802 0.643151,-0.41781 0.755822,-0.75582 0.159341,-0.47803 -0.259245,-1.07957 0,-1.51165 1.83039,-3.05065 5.307969,-4.9865 7.558219,-7.55822 0.741945,-0.84794 0.714937,-2.22658 1.511643,-3.02328 1.038778,-1.03878 2.673534,-1.30009 3.77911,-2.26747 1.631041,-1.42716 2.045289,-3.99039 3.779109,-5.29075 0.403105,-0.30233 1.060959,0.22534 1.511644,0 1.526521,-0.76326 2.870963,-3.22446 4.534931,-3.77911 0.478024,-0.15934 1.043802,0.18713 1.511644,0 0.843414,-0.33737 1.454981,-1.1054 2.267465,-1.51165 0.676028,-0.33801 1.534211,0.18332 2.267466,0 5.522149,-1.38053 6.352852,0.16301 8.31404,6.04658 0.680706,2.04212 1.648926,3.98477 2.267466,6.04657 0.440359,1.46787 0.271204,3.08108 0.755822,4.53493 0.287256,0.86177 1.224387,1.4057 1.511644,2.26747 0.484617,1.45385 0.334813,3.0614 0.755821,4.53493 1.36905,4.79167 4.170352,9.50554 5.290753,14.36062 0.456737,1.97919 0.263181,4.07601 0.755822,6.04657 0.918752,3.67501 2.61835,6.34341 3.77911,9.82569 2.741566,8.22469 -0.555639,-1.26656 0.755822,5.29075 0.331449,1.65725 1.639789,2.96574 2.267465,4.53493 0.187137,0.46784 -0.356298,1.15535 0,1.51164 0.178149,0.17815 0.643151,-0.22534 0.755822,0 0.225343,0.45069 -0.122209,1.02281 0,1.51165 0.434984,1.73993 0.785925,3.83931 1.511644,5.29075 0.396146,0.79229 0.33921,4.61233 0,5.29075 -0.406242,0.81249 -1.105402,1.45499 -1.511644,2.26747 -0.85561,1.71122 -0.816861,4.30962 -1.511644,6.04657 -0.801849,2.00463 -2.03877,4.83337 -3.023287,6.8024 -0.822224,1.64445 -9.12287,9.99805 -10.581506,10.58151 -0.964481,0.38579 -2.121376,0.24044 -3.023288,0.75582 -1.828568,1.0449 -3.493318,3.33664 -5.290753,4.53493 -4.718324,3.14555 -1.259703,0.25194 -5.290753,2.26747 -1.442896,0.72144 -2.519406,2.01552 -3.779109,3.02328 -0.709329,0.56747 -0.784936,1.72244 -1.511644,2.26747 -0.637365,0.47802 -1.704109,0.19246 -2.267465,0.75582 -0.312804,0.3128 -0.449652,3.16677 -0.755822,3.77911 -1.572775,3.14555 0.05218,-0.808 -1.511644,0.75582 -1.153234,1.15324 -0.755822,5.49915 -0.755822,6.8024 0,3.46737 0.729745,5.2386 2.267466,8.31404 0.112671,0.22534 -0.178149,0.57767 0,0.75582 0.178149,0.17815 0.64315,-0.22534 0.755822,0 0.225342,0.45069 -0.225343,1.06096 0,1.51164 0.112671,0.22535 0.577673,-0.17814 0.755821,0 0.178149,0.17815 -0.178148,0.57768 0,0.75583 3.578709,3.57871 10.904585,4.53493 15.87226,4.53493 2.50709,0 5.170477,0.26749 7.558218,-0.75582 0.654979,-0.28071 0.918728,-1.11637 1.511644,-1.51165 1.751895,-1.16793 4.969376,-2.23771 6.802397,-3.02329 4.20733,-1.80314 5.963968,-6.30057 8.31404,-9.82568 0.395277,-0.59292 1.192961,-0.87428 1.511644,-1.51164 0.929111,-1.85823 0.940895,-4.04896 1.511644,-6.04658 0.846304,-2.96206 2.949656,-5.41096 3.779109,-8.31404 0.20764,-0.72674 -0.148229,-1.52632 0,-2.26746 0.313773,-1.56887 1.760021,-3.0126 2.267465,-4.53494 1.296445,-3.88933 2.983436,-5.94694 4.534932,-9.82568 0.385792,-0.96448 0.291266,-2.09418 0.755822,-3.02329 0.609415,-1.21883 5.963903,-7.31021 6.046573,-7.55822 0.43262,-1.29786 -0.66221,-1.55845 0.75582,-2.26746 3.43844,-1.71922 7.13269,-1.51165 11.33733,-1.51165 7.66765,0 9.9582,1.18012 17.3839,3.77911 4.9023,1.71581 10.21415,2.06331 15.11644,3.77911 13.38412,6.69207 1.89912,1.63273 13.60479,5.29076 10.13707,3.16783 17.88643,8.18739 27.20959,12.84897 1.51165,0.75582 2.95751,1.66076 4.53493,2.26746 1.7119,0.65843 3.67584,0.64207 5.29076,1.51165 1.73252,0.93289 2.74358,2.96486 4.53493,3.77911 1.14679,0.52127 2.56379,-0.33145 3.77911,0 11.08538,3.02328 1.00776,1.34368 6.04657,3.02328 0.98547,0.32849 2.15897,0.17962 3.02329,0.75583 0.75582,0.50388 0.80231,1.7 1.51164,2.26746 1.13919,0.91135 4.06745,1.65581 5.29076,2.26747 1.27671,0.63835 0.49291,2.00456 1.51164,3.02328 0.64232,0.64233 1.7,0.80232 2.26746,1.51165 0.4977,0.62212 0.45994,1.52774 0.75583,2.26746 0.72207,1.80518 1.93767,3.31199 2.26746,5.29076 1.22695,7.36167 0.75582,15.1257 0.75582,22.67465 0,0.41576 -0.0512,9.01862 0,9.06987 0.3563,0.35629 1.06096,-0.22535 1.51165,0 1.59853,0.79926 3.37083,2.74901 5.29075,3.02328 1.24704,0.17815 2.54737,-0.26394 3.77911,0 22.02215,4.71903 -13.21315,-0.0455 17.3839,3.77911 2.51941,0.25194 5.03882,0.50388 7.55822,0.75582 2.01553,0.50389 3.98725,1.23707 6.04658,1.51165 5.26186,0.70158 11.32536,0 16.62808,0 12.34509,0 24.69018,0 37.03527,0 2.26746,0 4.57896,0.44468 6.8024,0 0.55241,-0.11049 0.95595,-0.66321 1.51164,-0.75582 0.99405,-0.16568 2.03509,0.19763 3.02329,0 0.34938,-0.0699 0.43714,-0.59648 0.75582,-0.75583 0.80574,-0.40287 2.26816,0.50342 3.02329,0 0.59291,-0.39527 1.00776,-2.01552 1.51164,-1.51164 0.17815,0.17815 -0.17815,0.57767 0,0.75582 0.17815,0.17815 0.57767,-0.17815 0.75582,0 0.66042,0.66042 1.21648,3.18878 1.51165,3.77911 0.40624,0.81249 1.26209,1.39403 1.51164,2.26747 0.27685,0.96898 -0.16568,2.02923 0,3.02328 0.0926,0.5557 0.66321,0.95596 0.75582,1.51165 0.28993,1.73959 0,3.52717 0,5.29075 0,1.51164 0.41528,3.08145 0,4.53493 -1.51102,5.28857 -5.15352,11.2001 -9.06986,15.11644 -1.9577,1.9577 -4.8447,3.33306 -6.8024,5.29075 -3.49645,3.49645 3.47701,-0.69116 -3.02329,3.02329 -4.78197,2.73256 -10.62319,3.85919 -15.87225,5.29075 -3.07454,0.83851 -5.99533,2.18478 -9.06987,3.02329 -5.01988,1.36906 -10.04412,0.24357 -15.11643,1.51164 -3.96564,0.99141 -3.80827,2.26747 -8.31404,2.26747 -2.70393,0 -1.62266,-1.22624 -3.77911,-3.02329 -2.75362,-2.29467 -2.80025,-0.42125 -4.53494,-3.02329 -0.62498,-0.93748 -0.71493,-2.22658 -1.51164,-3.02328 -1.03878,-1.03878 -2.82306,-1.15208 -3.77911,-2.26747 -0.67603,-0.7887 -0.17961,-2.15897 -0.75582,-3.02329 -0.50388,-0.75582 -1.7,-0.80231 -2.26747,-1.51164 -1.30829,-1.63537 -0.45844,-2.75065 -0.75582,-4.53493 -0.13098,-0.78587 -0.50388,-1.51164 -0.75582,-2.26747 -0.25194,-1.76358 -0.57856,-3.5181 -0.75582,-5.29075 -0.51293,-5.12924 0.29725,-10.07216 0.75582,-15.11644 0.11405,-1.25453 -0.17815,-2.53206 0,-3.77911 0.32849,-2.29943 1.22354,-4.49755 1.51164,-6.80239 0.21875,-1.74997 -0.13526,-3.53237 0,-5.29076 0.34843,-4.52951 1.70714,-10.41215 3.02329,-14.36061 2.00938,-6.02815 -0.6804,5.51866 0.75582,-4.53493 0.26004,-1.82029 4.40349,-8.44549 3.02329,-9.82569 -0.53445,-0.53444 -1.55043,0.23902 -2.26746,0 -0.33802,-0.11267 -0.41017,-0.6694 -0.75583,-0.75582 -4.44631,-1.11158 -16.93427,0.39744 -20.40719,2.26747 -2.0927,1.12684 -3.86194,2.84284 -6.04657,3.77911 -1.40859,0.60368 -3.08108,0.2712 -4.53493,0.75582 -1.43108,0.47702 -6.92579,3.52529 -8.31404,4.53493 -6.90042,5.01849 -11.81689,12.53324 -17.38391,18.89555 -1.41086,1.61242 -5.03881,4.70289 -6.04657,6.04657 -0.39083,0.5211 -3.57923,7.02521 -3.77911,7.55822 -1.00242,2.67311 -1.16034,6.25945 -1.51164,9.06986 -0.125,0.99998 0.27685,2.0543 0,3.02329 -0.24956,0.87343 -1.2621,1.39403 -1.51165,2.26747 -0.92661,3.24315 0.55746,7.23674 0,10.5815 -0.98088,5.88528 -0.75582,11.39994 -0.75582,17.3839"
       id="path15" />
    <path
       style="fill:#ff00ff"
       d="M -20.40719,562.33147 -83.896227,334.07326"
       id="path16" />
    <path
       style="fill:#80ffe6"
       d="m 293.25888,281.92155 c -1.2597,-0.50388 -3.27523,-2.77134 -3.77911,-1.51164 -0.50388,1.2597 5.09535,1.8407 3.77911,1.51164 -1.14996,-0.28749 -9.23495,-2.37752 -11.33733,-3.7791 -0.20962,-0.13976 0.23902,-0.67616 0,-0.75583 -1.45385,-0.48461 -3.10001,-0.21772 -4.53493,-0.75582 -0.66722,-0.25021 -0.87428,-1.19296 -1.51164,-1.51164 -0.45069,-0.22534 -1.02281,0.12221 -1.51164,0 -1.33292,-0.33323 -2.64119,-1.77979 -3.77911,-2.26747 -0.95479,-0.40919 -2.01553,-0.50388 -3.02329,-0.75582 -1.00776,-0.25194 -2.0685,-0.34663 -3.02329,-0.75582 -2.38416,-1.02178 -4.44101,-2.70575 -6.80239,-3.77911 -14.33535,-6.51607 -27.38595,-15.37005 -39.30274,-25.69794 -11.0602,-9.58551 -0.15933,-0.86093 -9.06986,-10.58151 -1.32964,-1.45051 -3.14355,-2.38772 -4.53494,-3.77911 -1.39138,-1.39139 -2.38772,-3.14354 -3.7791,-4.53493 -1.14071,-1.14071 -2.72925,-1.79845 -3.77911,-3.02329 -0.51849,-0.6049 -0.43225,-1.53942 -0.75583,-2.26746 -0.6864,-1.54441 -1.32998,-3.12871 -2.26746,-4.53493 -0.59292,-0.88938 -1.67455,-1.3781 -2.26747,-2.26747 -1.9194,-2.8791 -2.07471,-6.66376 -3.02328,-9.82568 -0.60887,-2.02955 -3.40535,-7.95687 -3.77911,-9.82569 -0.64233,-3.21162 0,-6.55045 0,-9.82568 0,-5.4146 -1.00166,-12.3573 1.51164,-17.38391 0.31868,-0.63736 1.19296,-0.87427 1.51164,-1.51164 0.7126,-1.42519 0.79905,-3.10974 1.51165,-4.53493 0.31868,-0.63737 1.03822,-0.97904 1.51164,-1.51164 1.54317,-1.73607 2.89248,-3.64831 4.53493,-5.29076 0.17815,-0.17815 0.57768,0.17815 0.75582,0 0.89075,-0.89074 1.37673,-2.13254 2.26747,-3.02328 2.59412,-2.59413 4.28633,-2.62633 7.55822,-4.53494 6.76545,-3.94651 13.72989,-8.68264 21.16301,-11.33732 1.44322,-0.51544 3.0614,-0.33482 4.53493,-0.75583 2.06976,-0.59136 3.97682,-1.6761 6.04658,-2.26746 1.47353,-0.42101 3.08108,-0.27121 4.53493,-0.75582 0.86177,-0.28726 1.51164,-1.00777 2.26746,-1.51165 1.51165,-0.75582 2.91614,-1.78182 4.53493,-2.26746 2.42519,-0.72756 5.11547,-0.0896 7.55822,-0.75582 1.30894,-0.35699 2.46288,-1.18259 3.77911,-1.51165 2.62321,-0.6558 12.22573,-1.58174 15.11644,-0.75582 7.05804,2.01658 13.68633,7.12318 18.13972,12.84897 0.90192,1.1596 1.4136,2.58369 2.26747,3.77911 0.41419,0.57986 1.1581,0.89294 1.51164,1.51164 2.91218,5.09632 0.34952,2.56021 2.26747,8.31405 0.28726,0.86176 1.22439,1.40569 1.51164,2.26746 3.00322,9.00966 -0.61311,0.71356 0.75582,7.55822 0.3125,1.56247 1.22661,2.96722 1.51165,4.53493 0.32249,1.77368 0.62296,7.20097 0,9.06986 -0.28726,0.86177 -1.26209,1.39403 -1.51165,2.26747 -0.27685,0.96899 0.27686,2.0543 0,3.02329 -0.24955,0.87343 -1.1054,1.45498 -1.51164,2.26746 -0.85808,1.71616 -1.25054,3.66368 -2.26746,5.29075 -0.29858,0.47773 -1.04291,0.44333 -1.51165,0.75583 -1.68855,1.1257 -2.72876,3.63184 -4.53493,4.53493 -0.92911,0.46455 -2.15897,0.17961 -3.02329,0.75582 -0.75582,0.50388 -0.73271,1.8001 -1.51164,2.26746 -0.64811,0.38887 -1.51924,-0.10688 -2.26747,0 -2.64597,0.378 -4.99625,1.62698 -7.55821,2.26747 -1.853,1.65298 -4.06374,0.31519 -6.04658,0.75582 -1.55547,0.34566 -2.96722,1.22661 -4.53493,1.51165 -2.47877,0.45068 -5.08774,-0.4941 -7.55822,0 -1.33039,0.26608 -2.44425,1.26894 -3.77911,1.51164 -2.72664,0.49575 -5.54269,0 -8.31404,0 -6.64746,0 -13.26018,0.31441 -19.65137,-1.51164 -4.42642,-1.26469 -8.69802,-3.63038 -12.84897,-5.29076 -0.96448,-0.38579 -2.13254,-0.22137 -3.02329,-0.75582 -0.0929,-0.0557 -3.56498,-4.37434 -3.77911,-4.53493 -4.91782,-3.68837 0.43475,2.70221 -4.53493,-2.26747 -0.56335,-0.56335 -0.31389,-1.60456 -0.75582,-2.26746 -1.53086,-2.29629 -1.30939,1.26146 -3.02329,-3.02329 -0.18713,-0.46784 0.12221,-1.02281 0,-1.51164 -1.90815,-7.63263 -4.03485,-30.09645 -1.51164,-37.03527 0.50204,-1.38061 1.80291,-2.38545 2.26747,-3.77911 6.10495,-18.31487 -4.40044,5.77758 3.02328,-9.06987 0.85808,-1.71615 1.34868,-3.60631 2.26747,-5.29075 1.20642,-2.21177 3.23871,-3.8862 4.53493,-6.04657 0.86953,-1.44923 1.37173,-3.10176 2.26747,-4.53493 1.78827,-2.86124 9.41232,-9.85913 12.09314,-12.093154 7.15325,-5.961042 15.35662,-10.502802 23.43048,-15.116437 2.93478,-1.677019 6.17142,-2.795865 9.06987,-4.534932 1.08018,-0.648111 1.9431,-1.619353 3.02328,-2.267465 2.41537,-1.449222 5.3048,-2.08904 7.55822,-3.779109 0.20155,-0.151165 -0.22534,-0.643151 0,-0.755822 1.40033,-0.700163 11.82095,-1.511644 13.60479,-1.511644 5.94985,0 24.34265,-0.47754 31.74452,0 3.80465,0.245461 7.53519,1.230004 11.33733,1.511644 3.01503,0.223335 6.06158,-0.300829 9.06986,0 5.07639,0.507638 10.27188,2.394949 15.11644,3.779109 0.72674,0.20764 1.59144,-0.338014 2.26747,0 2.05566,1.027831 2.138,3.023287 4.53493,3.023287 0.50388,0 -1.00777,0 -1.51165,0 -7.89745,0 1.15628,-0.318682 -5.29075,0.755822 -1.73959,0.289932 -3.53107,-0.117312 -5.29075,0 -2.77661,0.185108 -5.53607,0.592412 -8.31404,0.755822 -1.50904,0.08877 -3.04386,-0.248513 -4.53493,0 -1.57174,0.261956 -2.94943,1.353093 -4.53494,1.511644 -4.76311,0.476311 -9.6294,-0.727878 -14.36061,0 -12.60594,1.939376 0.1467,1.511644 -11.33733,1.511644 -10.32956,0 -20.65913,0 -30.9887,0 -6.88114,0 -14.34154,-0.852683 -21.16301,0 -0.79055,0.09882 -1.47876,0.64315 -2.26746,0.755821 -3.83495,0.547851 -10.81845,0.04739 -14.36062,0.755822 -1.33039,0.266079 -2.46287,1.182586 -3.77911,1.511644 -1.4812,0.3703 -7.07886,0.138235 -8.31404,0.755822 -1.34806,0.674032 -2.91035,1.86132 -4.53493,2.267465 -0.48884,0.12221 -1.06096,-0.225342 -1.51164,0 -0.22535,0.112672 0.22534,0.643151 0,0.755822 -0.45069,0.225343 -1.09239,-0.279503 -1.51165,0 -1.07947,0.719652 -0.43216,1.547815 -1.51164,2.267466 -0.46874,0.312494 -1.2218,0.272748 -1.51164,0.755822 -1.19464,1.991064 -1.24294,11.169227 -0.75583,13.604797 0.72059,3.60295 0.69323,1.27284 3.02329,4.53493 0.65489,0.91684 0.80779,2.14347 1.51165,3.02328 9.45889,11.82362 28.65507,18.99666 42.32602,23.43048 4.77503,1.54866 9.59834,2.94751 14.36061,4.53493 4.30885,1.43629 8.44938,3.40683 12.84898,4.53494 16.05677,4.11712 32.80289,5.16911 49.12842,7.55821 5.57419,0.81574 11.08538,2.01553 16.62808,3.02329 6.55045,0.50388 13.12486,0.75859 19.65137,1.51164 6.58384,0.75968 13.05902,2.34133 19.65137,3.02329 8.03495,0.8312 16.14603,0.73356 24.18629,1.51165 7.58966,0.73448 15.0874,2.26456 22.67466,3.02328 7.5374,0.75374 15.14277,0.70466 22.67466,1.51165 6.5898,0.70605 13.06924,2.24892 19.65137,3.02328 12.30131,1.44722 24.6919,1.99468 37.03527,3.02329 10.34275,0.8619 20.62799,2.41384 30.98869,3.02329 4.2756,0.25151 8.56892,-0.15852 12.84897,0 2.53024,0.0937 5.02941,0.62938 7.55822,0.75582 2.51627,0.12581 5.03882,0 7.55822,0 1.03878,0 3.75782,0.0213 3.02329,0.75582 -0.3563,0.3563 -1.09239,-0.2795 -1.51164,0 -0.59292,0.39528 -0.87428,1.19296 -1.51165,1.51165 -0.92911,0.46455 -2.0685,0.34662 -3.02329,0.75582 -0.83493,0.35783 -1.42405,1.17428 -2.26746,1.51164 -2.77096,1.10838 -6.94407,0.46379 -9.82569,1.51165 -6.69499,2.43454 -0.70472,2.51089 -8.31404,3.77911 -1.49107,0.24851 -3.04086,-0.22986 -4.53493,0 -4.41248,0.67884 -8.51787,2.69633 -12.84897,3.7791 -8.62468,2.15617 -16.91195,2.76535 -25.69794,3.77911 -4.69539,0.54178 -14.30403,2.68318 -18.89555,3.02329 -3.51753,0.26056 -7.05434,0 -10.5815,0 -12.09315,0 -24.1863,0 -36.27945,0 -20.85396,0 -41.90521,0.86784 -62.73322,0 -6.06227,-0.25259 -12.09231,-1.01798 -18.13972,-1.51164 -12.8457,-1.04863 -25.73732,-1.6 -38.54692,-3.02329 -7.08237,-0.78693 -14.08781,-2.17426 -21.16301,-3.02329 -5.52591,-0.66311 -11.10928,-0.7918 -16.62808,-1.51164 -6.07849,-0.79285 -12.06352,-2.21313 -18.13973,-3.02329 -9.54219,-1.27229 -19.13078,-2.18933 -28.72123,-3.02329 -0.0504,-0.004 -11.15481,-0.57331 -11.33733,-0.75582 -0.17814,-0.17815 0.17815,-0.57767 0,-0.75582 -0.58197,-0.58197 -2.60331,-1.00755 -3.02328,-2.26746 -0.15934,-0.47803 0.25924,-1.07957 0,-1.51165 -0.54994,-0.91657 -1.62613,-1.41235 -2.26747,-2.26746 -0.45349,-0.60466 0.14823,-1.52633 0,-2.26747 -1.05374,-5.26872 -0.37159,-8.69827 3.77911,-12.84897 0.64233,-0.64233 1.62514,-0.86932 2.26747,-1.51165 0.89074,-0.89074 1.37672,-2.13254 2.26746,-3.02328 8.57563,-8.57563 16.18752,-10.42416 27.20959,-14.36062 29.11216,-10.3972 -10.30899,2.17663 27.96541,-10.5815 4.2353,-1.41177 8.58996,-2.44057 12.84897,-3.77911 18.86143,-5.92788 37.63017,-12.09044 56.68664,-17.38391 3.71335,-1.03148 7.64591,-1.16004 11.33733,-2.26746 0.87007,-0.26102 1.39403,-1.26209 2.26746,-1.51165 3.05838,-0.87382 10.18581,0 13.6048,0 4.46122,0 2.19075,-0.0307 6.04657,1.51165 0.46784,0.18713 1.03362,-0.15934 1.51165,0 1.50404,0.50135 0.35271,0.70543 0.75582,1.51164 0.82395,1.6479 1.37502,2.30384 2.26746,4.53493 0.49522,1.23805 0,3.96377 0,5.29076 0,6.52208 0.91902,14.28208 -3.77911,19.65136 -2.14727,2.45404 -8.6821,10.35204 -10.5815,12.09315 -2.5983,2.38178 -7.01231,4.09886 -9.82569,6.04658 -1.61784,1.12004 -3.02328,2.51941 -4.53493,3.77911 -1.76358,1.2597 -3.48747,2.57692 -5.29075,3.77911 -1.97762,1.31841 -4.12991,2.37355 -6.04658,3.77911 -1.8731,1.3736 -3.23791,3.44813 -5.29075,4.53493 -4.22471,2.23661 -9.19916,2.67993 -13.60479,4.53493 -11.49811,4.84131 -22.37449,9.79809 -34.76781,12.09315 -10.50649,1.94565 -21.26092,2.43821 -31.74452,4.53493 -4.31451,0.8629 -8.50575,2.31898 -12.84897,3.02329 -4.99864,0.81059 -10.09413,0.8636 -15.11644,1.51164 -2.79362,0.36047 -5.51582,1.18877 -8.31404,1.51165 -3.76253,0.43413 -7.57299,0.33756 -11.33732,0.75582 -3.04625,0.33847 -6.01868,1.22105 -9.06987,1.51164 -6.82024,0.64955 -5.58948,-0.81177 -11.33732,0.75582 -1.30894,0.35699 -2.45468,1.21733 -3.77911,1.51165 -2.21347,0.49188 -4.5488,-0.2504 -6.8024,0 -12.63567,1.40396 4.74174,0.0784 -5.29075,1.51164 -0.99764,0.14252 -2.04562,-0.24442 -3.02329,0 -1.09307,0.27327 -2.01553,1.00776 -3.02329,1.51164 -1.2597,0.50389 -2.45467,1.21733 -3.77911,1.51165 -0.98376,0.21861 -2.07969,-0.35385 -3.02328,0 -3.14559,1.17959 -2.75436,2.844 -5.29076,4.53493 -0.6629,0.44193 -1.70411,0.19246 -2.26746,0.75582 -0.56336,0.56336 -0.36055,1.57573 -0.75583,2.26747 -0.62498,1.09372 -1.61935,1.9431 -2.26746,3.02328 -1.30313,2.17188 -0.75582,5.81386 -0.75582,8.31404 0,2.23106 -0.40663,4.76812 0.75582,6.8024 2.50506,4.38387 14.7484,16.13078 18.89555,18.89555 2.70995,1.80663 15.34132,7.19062 17.3839,8.31404 1.899,1.04445 3.334,2.84732 5.29075,3.77911 8.37524,3.98821 16.76204,5.10032 25.69794,6.80239 8.57521,1.63338 16.92267,3.41348 25.69795,3.77911 6.04133,0.25173 12.09315,0 18.13972,0 2.77135,0 5.59016,-0.51072 8.31404,0 5.40822,1.01404 10.3698,4.53493 15.87226,4.53493 2.51941,0 3.63342,-3.81098 6.04658,-4.53493 2.89578,-0.86873 6.04657,0 9.06986,0 12.53846,0 -0.11213,0.28504 11.33733,-0.75582 2.23328,-0.20302 5.42837,0.70995 7.55822,0 0.57099,-0.19033 2.90118,-1.63375 3.77911,-0.75582 0.35629,0.3563 -0.3563,1.15535 0,1.51164 0.39835,0.39836 1.19915,0.28708 1.51164,0.75583 0.59166,0.88749 0.40236,3.47454 0.75582,4.53493 0.22534,0.67602 1.19296,0.87428 1.51165,1.51164 0.37391,0.74783 0.16642,3.18971 0.75582,3.77911 1.11892,1.11892 4.07111,0.90182 5.29075,1.51164 0.81248,0.40625 1.86122,2.32413 2.26747,1.51165 0.57752,-1.15505 0,-14.7025 0,-15.11644 0,-8.54327 -0.0313,-16.45575 1.51164,-24.94212 0.87507,-4.8129 2.01552,-9.57375 3.02329,-14.36062 0.75582,-5.03881 1.36733,-10.10139 2.26746,-15.11643 0.86421,-4.81486 2.34726,-9.51576 3.02329,-14.36062 0.83851,-6.00931 0.65356,-12.13317 1.51164,-18.13972 0.65698,-4.59887 2.46428,-8.993 3.02329,-13.6048 0.45475,-3.75165 -0.22862,-7.56514 0,-11.33733 0.27603,-4.55448 1.22702,-9.05084 1.51164,-13.60479 0.88712,-14.19387 -2.47974,-22.39162 6.8024,-34.76781 5.33755,-7.11673 14.44929,-7.64689 20.40719,-13.60479"
       id="path17" />
    <path
       style="fill:#ffd42a"
       d="m 454.24894,486.74928 c -13.19174,0.25726 -26.33127,-2.62736 -39.30274,-4.53493 -2.00959,-0.29553 -4.1196,-0.1135 -6.04657,-0.75582 -3.42213,-1.14071 -6.58094,-2.95892 -9.82569,-4.53493 -19.51915,-9.48074 -11.27244,-4.8995 -23.43047,-12.84898 -4.26973,-2.79174 -8.90698,-5.07597 -12.84898,-8.31404 -2.10732,-1.73101 -14.1959,-15.74492 -15.87226,-18.13972 -4.67853,-6.68363 -5.0611,-14.98271 -3.7791,-22.67466 0.29287,-1.75725 0.32374,-3.56245 0.75582,-5.29075 0.49925,-1.99701 4.18888,-5.57486 5.29075,-7.55822 0.65889,-1.186 0.67869,-2.70816 1.51164,-3.77911 3.57751,-4.59965 9.30568,-6.20781 14.36062,-8.31404 1.56006,-0.65003 2.94661,-1.6899 4.53493,-2.26746 3.62192,-1.31707 7.56605,-1.47352 11.33733,-2.26747 10.76961,-2.26729 19.96491,-1.51164 30.98869,-1.51164 7.30628,0 14.64003,-0.63294 21.91884,0 5.61238,0.48803 11.10392,1.91845 16.62808,3.02328 2.03721,0.40745 4.02222,1.04449 6.04657,1.51165 1.25176,0.28886 2.72669,0.0191 3.77911,0.75582 7.99015,5.5931 1.65838,2.48756 4.53494,6.8024 0.59291,0.88937 1.70095,1.36104 2.26746,2.26746 2.53295,4.05272 1.1925,8.38095 1.51164,12.84897 0.16255,2.27562 1.30915,4.5891 0.75583,6.8024 -3.7967,15.18679 -14.30948,29.19102 -27.20959,37.79109 -9.27021,6.18014 -25.65633,14.60793 -37.03527,15.87226 -2.2536,0.2504 -4.53493,0 -6.8024,0 -10.64937,0 -19.5782,-0.22017 -30.23287,-1.51164 -4.2812,-0.51893 -8.56282,-1.03541 -12.84897,-1.51165 -4.78388,-0.53154 -9.67525,-0.4092 -14.36062,-1.51164 -3.96203,-0.93224 -7.47597,-3.24781 -11.33733,-4.53493 -10.91203,-3.63735 -22.45276,-5.81299 -33.25616,-9.82568 -9.66164,-3.58861 -18.89896,-8.72286 -27.96541,-13.6048 -4.22176,-2.27325 -6.02329,-5.06105 -8.31404,-9.06986 -0.72885,-1.2755 -1.41359,-2.58369 -2.26746,-3.77911 -0.41419,-0.57986 -1.28631,-0.83562 -1.51165,-1.51164 -0.84608,-2.53824 1.26991,-11.3603 2.26747,-13.6048 0.51161,-1.15113 1.59982,-1.95506 2.26746,-3.02328 2.78509,-4.45614 4.16457,-9.457 7.55822,-13.6048 2.8449,-3.47709 7.19836,-8.37707 10.58151,-11.33733 9.05989,-7.9274 17.92295,-12.61901 27.96541,-18.89554 6.3148,-3.94675 30.22765,-17.38651 39.30273,-12.84897 4.88754,2.44376 8.01229,8.76906 9.82569,13.60479 0.92357,2.46286 1.17902,5.16365 2.26746,7.55822 0.23312,0.51286 1.23806,0.26336 1.51165,0.75582 1.04538,1.88169 1.41952,4.06804 2.26746,6.04657 1.42096,3.31558 2.85487,6.63358 4.53493,9.82569 0.84616,1.60769 2.32453,2.85791 3.02329,4.53493 0.58942,1.41461 0.38414,3.04819 0.75582,4.53493 0.57969,2.31876 1.74898,4.4692 2.26747,6.8024 0.33244,1.496 0.2712,3.08108 0.75582,4.53493 0.28726,0.86177 1.38318,1.36821 1.51164,2.26746 0.53445,3.74113 0.46874,7.58741 0,11.33733 -0.44629,3.57036 -0.92339,2.68641 -2.26746,6.04658 -2.666,6.66499 -5.33601,12.89422 -10.58151,18.13972 -1.53249,1.5325 -3.59839,2.42523 -5.29075,3.77911 -6.72998,5.38398 -5.98109,6.39175 -14.36062,10.58151 -10.08189,5.04094 -21.72349,8.14418 -32.50034,11.33733 -3.51717,1.04212 -6.96653,2.40001 -10.5815,3.02328 -3.73243,0.64353 -7.56637,0.4023 -11.33733,0.75583 -4.2937,0.40253 -8.56282,1.0354 -12.84897,1.51164 -16.69059,1.85451 -10.17825,1.51164 -24.1863,1.51164 -2.0454,0 -15.51407,1.11402 -17.3839,-0.75582 -0.90839,-0.90838 -0.24978,-2.59833 -0.75583,-3.77911 -0.35783,-0.83494 -1.31458,-1.38071 -1.51164,-2.26746 -0.32792,-1.47565 0,-3.02329 0,-4.53494 0,-15.48869 11.22843,-32.71508 20.40719,-44.59349 7.78931,-10.08028 15.52947,-20.06159 24.94212,-28.72123 11.27972,-10.37734 9.2205,-7.78177 21.16301,-16.62808 3.32041,-2.45956 6.33957,-5.33977 9.82569,-7.55822 26.43259,-16.82074 55.81499,-24.90648 85.40787,-34.01198 6.0918,-1.8744 12.02102,-4.26195 18.13972,-6.04657 31.84599,-9.28842 5.36092,-1.24137 30.9887,-6.04658 3.84418,-0.72078 7.48924,-2.32364 11.33733,-3.02329 0.59363,-0.10793 8.28,-0.0454 8.31404,0 5.31747,7.08997 4.53493,15.88856 4.53493,24.1863 0,11.67371 0.44469,1.97053 -1.51164,14.36062 -0.35582,2.2535 -0.16799,4.59801 -0.75583,6.8024 -0.10497,0.39365 -3.28922,6.45597 -3.77911,7.55821 -0.55102,1.23981 -0.61822,2.75806 -1.51164,3.77911 -1.13737,1.29986 -10.50613,6.43616 -12.09315,6.8024 -1.71842,0.39656 -3.53165,-0.12565 -5.29075,0 -10.21505,0.72965 -20.7141,1.5169 -30.9887,0.75582 -8.64862,-0.64064 -14.87911,-2.53961 -23.43048,-4.53493 -13.6633,-3.1881 -6.15949,-0.45992 -18.13972,-6.8024 -4.4517,-2.35678 -4.93587,-1.55112 -7.55822,-6.04657 -0.96679,-1.65735 -1.40939,-3.5746 -2.26747,-5.29075 -0.65698,-1.31397 -1.85294,-2.36975 -2.26746,-3.77911 -3.59754,-12.23164 -0.8719,-30.28705 -1.51164,-43.08185 -0.26541,-5.30806 -1.23231,-10.56491 -1.51165,-15.87226 -0.41049,-7.79936 0,-15.62032 0,-23.43048 0,-4.78687 -0.31842,-9.58434 0,-14.36061 0.18737,-2.81054 1.08333,-5.53002 1.51165,-8.31404 0.57972,-3.76822 0.85839,-7.58116 1.51164,-11.33733 0.35597,-2.04683 1.21783,-3.9899 1.51164,-6.04658 0.46456,-3.25188 -0.005,-6.6301 0.75582,-9.82568 0.52194,-2.19215 2.12008,-3.98208 3.02329,-6.04657 3.60881,-8.2487 5.93996,-16.45655 12.84897,-22.67466 1.19909,-1.07918 2.51941,-2.01553 3.77911,-3.02329 1.00777,-1.51164 1.73864,-3.25028 3.02329,-4.53493 1.03878,-1.03878 2.68113,-1.29148 3.77911,-2.26746 1.50005,-1.33339 3.8593,-5.16645 5.29075,-6.8024 2.85224,-3.2597 6.22378,-6.66859 9.82569,-9.06986 1.93316,-1.28878 3.396,-2.07591 5.29075,-3.02329 0.72377,-0.36189 1.37909,-3.15584 2.26747,-2.26747 0.13234,0.13235 0.0617,13.1111 0,13.6048 -0.31869,2.54946 -1.05204,5.03036 -1.51165,7.55822 -1.09656,6.0311 -2.29293,12.05341 -3.02329,18.13972 -1.27031,10.58593 -1.67939,21.24593 -3.7791,31.74452 -1.62977,8.14884 -4.98311,15.9444 -6.04658,24.1863 -0.51586,3.9979 0,8.0621 0,12.09315 0,11.82509 0.74252,24.90221 4.53493,36.27945 1.09677,3.29031 3.23415,6.57373 4.53493,9.82568 0.0268,0.0671 1.51165,2.42875 1.51165,1.51165 0,-0.50389 -1.02715,0.13842 -1.51165,0 -1.5321,-0.43775 -2.95549,-1.30106 -4.53493,-1.51165 -2.24757,-0.29968 -4.54345,0.19643 -6.8024,0 -7.8453,-0.6822 -15.59883,-2.1989 -23.43047,-3.02329 -4.3927,-0.46238 -28.4028,-2.68182 -32.50034,-3.02328 -13.59495,-1.13292 -27.25576,-1.51678 -40.81438,-3.02329 -14.66069,-1.62897 -29.17699,-4.41761 -43.83767,-6.04658 -5.53151,-0.61461 -11.15558,-0.49821 -16.62808,-1.51164 -8.17129,-1.5132 -16.03746,-4.41681 -24.1863,-6.04657 -9.50413,-1.90083 -19.20707,-2.68496 -28.72123,-4.53494 -17.27625,-3.35927 -34.20263,-8.33212 -51.39589,-12.09315 -40.73817,-8.91147 -5.59362,0.48788 -40.81438,-10.5815 -3.278067,-1.03025 -10.719057,-1.78675 -12.848972,-6.04658 -1.371458,-2.74291 8.542619,-5.17276 10.581506,-6.04657 2.071225,-0.88767 4.000556,-2.07897 6.046575,-3.02329 18.584441,-8.57743 39.047961,-15.11644 59.709931,-15.11644 14.5415,0 29.43787,-0.93938 43.83766,1.51165 6.6273,1.12805 13.06818,3.17289 19.65137,4.53493 58.44974,12.09305 -13.35542,-4.47259 52.90753,12.09315 12.51962,3.1299 47.48734,10.90722 60.46575,15.11644 9.25689,3.00223 18.1198,7.106 27.20959,10.5815 15.03876,5.75012 30.4387,10.55339 45.34931,16.62808 6.68128,2.722 13.1377,5.96812 19.65137,9.06987 3.04267,1.44889 18.34122,9.07778 21.91883,11.33732 11.75073,7.42151 1.23891,0.64411 5.29076,6.04658 0.33801,0.45068 1.11329,0.35747 1.51164,0.75582 0.85874,0.85874 -0.43613,6.32286 -0.75582,6.8024 -0.59292,0.88937 -1.59973,1.4328 -2.26747,2.26746 -2.30348,2.87936 -6.21668,8.24709 -9.06986,10.58151 -1.30804,1.07021 -3.12871,1.32998 -4.53493,2.26746 -5.30002,3.53335 -3.92485,4.43425 -9.82569,7.55822 -2.39814,1.26961 -5.1312,1.80978 -7.55821,3.02329 -2.12588,1.06294 -3.87463,2.8138 -6.04658,3.77911 -9.18456,4.08203 -21.31412,4.43079 -30.9887,5.29075 -22.22319,1.9754 -16.26318,1.51165 -37.79109,1.51165 -13.10091,0 -26.21017,0.46759 -39.30274,0 -7.0678,-0.25243 -14.09658,-1.22322 -21.16301,-1.51165 -5.28635,-0.21577 -10.5881,0.26421 -15.87226,0 -9.18876,-0.45944 -26.38579,-2.15115 -35.52362,-4.53493 -2.62562,-0.68494 -4.98399,-2.16521 -7.55822,-3.02329 -1.21873,-0.40624 -2.63009,-0.1813 -3.77911,-0.75582 -8.19895,-4.09947 -6.04658,-19.16405 -6.04658,-26.45376 0,-10.11584 0.81984,-20.31736 3.02329,-30.23288 2.40122,-10.80546 6.78863,-21.11482 9.82568,-31.74452 0.55984,-1.95942 4.01194,-15.60715 5.29076,-18.89554 0.81674,-2.10021 2.23205,-3.93663 3.02329,-6.04658 1.48289,-3.95439 2.2813,-8.14438 3.7791,-12.09315 1.27933,-3.37276 3.35497,-6.41689 4.53494,-9.82568 1.09952,-3.17639 1.08723,-6.6784 2.26746,-9.82569 1.10843,-2.95581 3.18355,-5.46111 4.53493,-8.31404 2.08298,-4.39739 3.52717,-9.06986 5.29076,-13.60479 1.50438,-3.86842 3.83712,-8.66214 4.53493,-12.84897 0.12425,-0.74554 -0.18332,-1.53421 0,-2.26747 0.93397,-3.73588 0.75582,1.58173 0.75582,-1.51164 7.48729,1.42395 1.20062,5.64693 2.26746,8.31404 0.33737,0.84341 1.17428,1.42405 1.51165,2.26747 0.15944,0.39859 0.71556,4.37389 0.75582,4.53493 0.35733,1.42931 -0.8411,4.78492 0,6.04657 0.39528,0.59292 1.24699,0.85002 1.51164,1.51165 0.40264,1.00659 -0.46527,8.60459 0,9.06986 0.17815,0.17815 0.57768,-0.17815 0.75583,0 0.34938,0.34939 -0.22818,1.81112 0,2.26746 1.09275,2.18551 2.64512,4.53444 3.7791,6.8024 0.5788,1.1576 1.34689,0.59107 2.26747,1.51164 0.29852,0.29852 1.16798,6.11506 1.51164,6.8024 0.63737,1.27473 2.23274,1.83746 3.02329,3.02329 0.67775,1.01662 1.17313,2.68477 2.26747,3.77911 -3.29356,5.32452 -4.47515,11.23271 -7.55822,16.62808 -0.62499,1.09373 -1.82516,1.84379 -2.26747,3.02329 -0.35385,0.94359 0.24442,2.04561 0,3.02328 -0.4099,1.63961 -1.93601,2.87769 -2.26746,4.53493 -0.81277,4.06383 1.30035,0.49302 -0.75582,5.29076 -0.35783,0.83493 -1.2621,1.39403 -1.51165,2.26746 -0.65714,2.30001 0.14163,10.15663 -0.75582,12.84897 -0.62469,1.87409 -2.26747,3.12718 -2.26747,5.29076 -4.02051,-0.90952 -8.03037,-0.75582 -12.09315,-0.75582"
       id="path18" />
    <path
       style="fill:#ffd42a"
       d="m 244.88628,321.22429 c 0,1.00776 -1.00776,3.02329 0,3.02329 1.00777,0 0,-4.03105 0,-3.02329 0,5.41114 -0.72705,7.38558 -1.51164,12.09315 -0.16568,0.99405 0.55901,2.18478 0,3.02329 -1.41965,2.12947 -1.51164,0.96838 -1.51164,3.02329"
       id="path19" />
    <path
       style="fill:#ffd42a"
       d="m 250.93286,323.49176 c 0.50388,1.00776 0.50388,3.52717 1.51164,3.02328 1.00776,-0.50388 -1.78491,-4.11635 -1.51164,-3.02328 0.75582,2.01552 1.51164,4.03105 2.26746,6.04657 0.25194,0 0.57768,-0.17815 0.75583,0 0.35629,0.3563 -0.3563,1.15535 0,1.51165 0.17814,0.17814 0.57767,-0.17815 0.75582,0 0.53444,0.53444 0,1.51164 0,2.26746 0,0.71654 0.31385,2.39559 0,3.02329 -0.63991,1.27981 -7.55914,2.26746 -9.06986,2.26746"
       id="path20" />
    <path
       style="fill:#ffd42a"
       d="M 787.56638,375.64347 622.04139,96.745198"
       id="path21" />
  </g>
</svg>
